<?xml version="1.0" encoding="iso-8859-1"?>
<!-- Generator: Adobe Illustrator 19.0.0, SVG Export Plug-In . SVG Version: 6.00 Build 0)  -->
<svg version="1.1" id="Capa_1" xmlns="http://www.w3.org/2000/svg" xmlns:xlink="http://www.w3.org/1999/xlink" x="0px" y="0px"
	 viewBox="0 0 512 512" style="enable-background:new 0 0 512 512;" xml:space="preserve">
<path style="fill:#61CEF3;" d="M356.646,44.349l-94.43-43c-1.982-0.903-4.102-1.345-6.216-1.345v116.005
	c2.056,0.001,4.165-0.423,6.216-1.357l94.43-43c5.351-2.436,8.784-7.773,8.784-13.651S361.996,46.785,356.646,44.349z"/>
<path style="fill:#91E0FF;" d="M241,101V15c0-5.102,2.593-9.854,6.883-12.614c4.292-2.761,9.692-3.151,14.333-1.037l94.43,43
	c5.351,2.436,8.784,7.773,8.784,13.651s-3.434,11.215-8.784,13.651l-94.43,43C252.291,119.172,241,111.905,241,101z"/>
<path style="fill:#9D9D9D;" d="M256,186.9c-8.284,0-15-6.716-15-15V15c0-8.284,6.716-15,15-15s15,6.716,15,15v156.9
	C271,180.184,264.284,186.9,256,186.9z"/>
<path style="fill:#757575;" d="M256,0v186.9c8.284,0,15-6.716,15-15V15C271,6.716,264.284,0,256,0z"/>
<path style="fill:#C6C6C6;" d="M306,312H206c-8.284,0-15-6.716-15-15v-35h-10c-8.284,0-15-6.716-15-15v-75.1c0-8.284,6.716-15,15-15
	h150c8.284,0,15,6.716,15,15V247c0,8.284-6.716,15-15,15h-10v35C321,305.284,314.284,312,306,312z"/>
<path style="fill:#9D9D9D;" d="M331,156.9h-75V312h50c8.284,0,15-6.716,15-15v-35h10c8.284,0,15-6.716,15-15v-75.1
	C346,163.616,339.284,156.9,331,156.9z"/>
<path style="fill:#EEEEEE;" d="M397,512H115c-8.284,0-15-6.716-15-15V247c0-8.284,6.716-15,15-15h91c8.284,0,15,6.716,15,15v35h70
	v-35c0-8.284,6.716-15,15-15h91c8.284,0,15,6.716,15,15v250C412,505.284,405.284,512,397,512z"/>
<path style="fill:#C6C6C6;" d="M397,232h-91c-8.284,0-15,6.716-15,15v35h-35v230h141c8.284,0,15-6.716,15-15V247
	C412,238.716,405.284,232,397,232z"/>
<path style="fill:#6A82A1;" d="M311,512H201V387.835c0-30.182,23.967-55.368,54.146-55.828C285.863,331.538,311,356.389,311,387V512
	z"/>
<path style="fill:#C6C6C6;" d="M114.275,161.017c-8.068,0.38-14.275,7.33-14.275,15.407V182H80v-5.576
	c0-8.077-6.207-15.027-14.275-15.407C57.112,160.612,50,167.476,50,176v6H30v-5.576c0-8.077-6.207-15.027-14.275-15.407
	C7.112,160.612,0,167.476,0,176c0,34.778,0,323.049,0,321c0,8.284,6.716,15,15,15h115c0-16.784,0-327.716,0-336
	C130,167.476,122.889,160.612,114.275,161.017z"/>
<path style="fill:#FFD561;" d="M65,362c-8.284,0-15-6.716-15-15v-50c0-8.284,6.716-15,15-15s15,6.716,15,15v50
	C80,355.284,73.284,362,65,362z"/>
<path style="fill:#52677B;" d="M311,387c0-30.326-24.674-54.983-55-54.985V512h55V387z"/>
<path style="fill:#9D9D9D;" d="M496.275,161.017c-8.068,0.38-14.275,7.33-14.275,15.407V182h-20v-5.576
	c0-8.077-6.207-15.027-14.275-15.407C439.112,160.612,432,167.476,432,176v6h-20v-5.576c0-8.077-6.207-15.027-14.275-15.407
	C389.112,160.612,382,167.476,382,176c0,7.087,0,318.664,0,336h115c8.284,0,15-6.716,15-15c0-14.436,0-311.313,0-321
	C512,167.476,504.889,160.612,496.275,161.017z"/>
<path style="fill:#FFB23D;" d="M447,362c-8.284,0-15-6.716-15-15v-50c0-8.284,6.716-15,15-15s15,6.716,15,15v50
	C462,355.284,455.284,362,447,362z"/>
<g>
</g>
<g>
</g>
<g>
</g>
<g>
</g>
<g>
</g>
<g>
</g>
<g>
</g>
<g>
</g>
<g>
</g>
<g>
</g>
<g>
</g>
<g>
</g>
<g>
</g>
<g>
</g>
<g>
</g>
</svg>
